<svg width="156" height="33" viewBox="0 0 156 33" fill="none" xmlns="http://www.w3.org/2000/svg">
<path d="M92.2197 29.3795C92.7295 29.5631 93.3108 29.6549 93.9635 29.6549C94.5753 29.6549 95.0546 29.5019 95.4013 29.196C95.748 28.9105 96.0744 28.3598 96.3803 27.544L96.9616 26.0143L90.2617 10.6567H94.3L98.6748 22.129L102.682 10.6567H106.476L100.143 26.718C99.7761 27.6562 99.4294 28.4822 99.1031 29.196C98.7767 29.9098 98.4096 30.5115 98.0017 31.001C97.5938 31.4904 97.1043 31.8576 96.5333 32.1023C95.9826 32.3674 95.2993 32.5 94.4835 32.5C93.9533 32.5 93.4638 32.4592 93.0151 32.3776C92.5664 32.3165 92.0871 32.2043 91.5772 32.0411L92.2197 29.3795Z" fill="white"/>
<path d="M85.5322 18.2748C85.5322 17.2754 85.42 16.4392 85.1957 15.7662C84.9917 15.0727 84.696 14.5323 84.3085 14.1448C83.9413 13.7369 83.5028 13.4513 82.993 13.2882C82.5035 13.1046 81.9834 13.0128 81.4327 13.0128C80.1478 13.0128 79.1485 13.4717 78.4346 14.3895C77.7412 15.3073 77.3945 16.7044 77.3945 18.5807C77.3945 19.6005 77.4862 20.4673 77.6698 21.1811C77.8738 21.8949 78.1491 22.4762 78.4958 22.9249C78.8629 23.3736 79.281 23.6999 79.7501 23.9039C80.2192 24.1078 80.7291 24.2098 81.2798 24.2098C82.5443 24.2098 83.564 23.8019 84.339 22.9861C85.1345 22.1499 85.5322 20.8548 85.5322 19.1008V18.2748ZM85.5628 24.3628C84.9101 25.2601 84.1657 25.9332 83.3295 26.3819C82.5137 26.8306 81.5551 27.0549 80.4538 27.0549C79.3116 27.0549 78.3224 26.851 77.4862 26.4431C76.65 26.0352 75.9566 25.4641 75.4059 24.7299C74.8553 23.9753 74.4371 23.0881 74.1516 22.0683C73.8865 21.0281 73.7539 19.886 73.7539 18.6419C73.7539 17.4794 73.8967 16.3984 74.1822 15.3991C74.4677 14.3793 74.8858 13.5023 75.4365 12.7681C75.9872 12.0135 76.6602 11.4118 77.4556 10.9631C78.2715 10.5144 79.2096 10.2697 80.2702 10.2289C80.4741 10.2085 80.6781 10.2085 80.8821 10.2289C81.086 10.2289 81.3002 10.2391 81.5245 10.2595C82.2383 10.341 82.9216 10.545 83.5742 10.8713C84.2473 11.1773 84.8897 11.6973 85.5016 12.4316V4.72217H88.9586V26.5654H85.5628V24.3628Z" fill="white"/>
<path d="M65.7776 19.1317C64.7375 19.1929 63.8911 19.305 63.2384 19.4682C62.6062 19.6313 62.1167 19.8455 61.77 20.1106C61.4233 20.3554 61.1887 20.6511 61.0663 20.9978C60.9644 21.3241 60.9134 21.6811 60.9134 22.0686C60.9134 22.762 61.1275 23.3025 61.5558 23.69C62.0045 24.0775 62.6572 24.2713 63.5138 24.2713C65.0434 24.2713 66.1753 23.8837 66.9096 23.1087C67.6438 22.3337 68.0109 21.2834 68.0109 19.9577V19.0399L65.7776 19.1317ZM68.0721 24.4854C67.4806 25.1992 66.7566 25.7907 65.9 26.2598C65.0434 26.7289 64.0033 26.9634 62.7795 26.9634C62.0249 26.9634 61.3213 26.8614 60.6686 26.6575C60.016 26.4739 59.4449 26.1884 58.9554 25.8009C58.4863 25.4134 58.109 24.9239 57.8235 24.3324C57.5583 23.7206 57.4258 23.0068 57.4258 22.1909C57.4258 21.0896 57.6705 20.2024 58.16 19.5294C58.6495 18.8359 59.2817 18.2955 60.0568 17.908C60.8522 17.5204 61.7394 17.2553 62.7184 17.1125C63.6973 16.9494 64.6763 16.8474 65.6553 16.8066L68.0109 16.6842V16.0112C68.0109 14.8079 67.7152 13.9819 67.1237 13.5332C66.5527 13.0641 65.798 12.8295 64.8599 12.8295C63.7789 12.8295 62.9733 13.0131 62.443 13.3802C61.9331 13.7473 61.5966 14.2776 61.4334 14.971L58.2518 14.6345C58.5373 13.0845 59.241 11.9525 60.3627 11.2387C61.4844 10.5249 63.0243 10.168 64.9822 10.168C66.2467 10.168 67.2869 10.3311 68.1027 10.6575C68.9389 10.9838 69.6018 11.4325 70.0912 12.0035C70.5807 12.5746 70.9172 13.2578 71.1008 14.0533C71.3048 14.8283 71.4067 15.6849 71.4067 16.6231V26.5657H68.0721V24.4854Z" fill="white"/>
<path d="M51.6348 10.6569V13.0125C52.1854 12.1763 52.8483 11.5338 53.6233 11.0852C54.3983 10.6365 55.2243 10.4121 56.1013 10.4121C56.448 10.4121 56.7336 10.4223 56.9579 10.4427C57.2027 10.4631 57.4372 10.4937 57.6615 10.5345L57.2638 13.7161C57.0395 13.6549 56.7948 13.6142 56.5296 13.5938C56.2645 13.5734 55.9891 13.5632 55.7036 13.5632C55.051 13.5632 54.4799 13.6753 53.9904 13.8997C53.5009 14.1036 53.0828 14.379 52.7361 14.7257C52.4098 15.0724 52.1548 15.4701 51.9713 15.9188C51.8081 16.3471 51.7265 16.7856 51.7265 17.2343V26.5651H48.2695V10.6569H51.6348Z" fill="white"/>
<path d="M39.3984 7.93441H32.4844V4.72217H49.9835V7.93441H43.1001V26.5654H39.3984V7.93441Z" fill="white"/>
<path d="M12.089 0.5H0.171875V31.2707H12.089V25.2051H8.83473V6.56552H12.089V0.5Z" fill="white"/>
<path d="M13.7235 0.5H25.6406V31.2707H13.7235V25.2051H16.9778V6.56552H13.7235V0.5Z" fill="white"/>
<rect x="114.477" y="8" width="41.3548" height="17" rx="8.5" fill="#328DFF"/>
<path d="M147.974 18.6429H144.256L143.386 21H141.949L145.378 12H146.915L150.331 21H148.844L147.974 18.6429ZM146.109 13.4244L144.647 17.458H147.571L146.109 13.4244Z" fill="black"/>
<path d="M138.377 13.2353H135.465V12H142.687V13.2353H139.776V21H138.377V13.2353Z" fill="black"/>
<path d="M128.539 12H134.489V13.1849H129.938V15.7815H134.236V16.9664H129.938V19.8151H134.728L134.539 21H128.539V12Z" fill="black"/>
<path d="M120.477 12H123.64C124.472 12 125.115 12.1008 125.569 12.3025C126.031 12.5042 126.355 12.7815 126.539 13.1345C126.724 13.479 126.817 13.8697 126.817 14.3067C126.817 14.7185 126.72 15.0882 126.527 15.416C126.342 15.7437 126.023 16.0168 125.569 16.2353C126.149 16.4622 126.548 16.7689 126.766 17.1555C126.985 17.5336 127.094 17.9454 127.094 18.3908C127.094 18.8866 126.985 19.3319 126.766 19.7269C126.556 20.1218 126.212 20.4328 125.733 20.6597C125.254 20.8866 124.615 21 123.817 21H120.477V12ZM125.72 18.3908C125.72 17.895 125.573 17.5168 125.279 17.2563C124.985 16.9958 124.497 16.8655 123.817 16.8655H121.825V19.8908H123.741C124.254 19.8908 124.653 19.8319 124.939 19.7143C125.224 19.5882 125.426 19.416 125.544 19.1975C125.661 18.9706 125.72 18.7017 125.72 18.3908ZM125.468 14.395C125.468 13.9496 125.321 13.6261 125.027 13.4244C124.733 13.2143 124.237 13.1092 123.54 13.1092H121.825V15.7563H123.703C124.325 15.7563 124.775 15.6429 125.052 15.416C125.329 15.1807 125.468 14.8403 125.468 14.395Z" fill="black"/>
</svg>
